<svg width="36" height="36" viewBox="0 0 36 36" fill="none" xmlns="http://www.w3.org/2000/svg">
<path d="M9 12C9 7.01998 13.02 3 18 3C22.98 3 27 7.01998 27 12V16.2C27 21.48 22.98 27 18 27C13.02 27 9 21.48 9 16.2V12Z" fill="#FFDD09"/>
<path d="M25.2001 16.2V12C25.2001 7.32 21.6601 3.48002 17.1001 3.05998C17.4001 3 17.7001 3 18.0001 3C22.9801 3 27.0001 7.01998 27.0001 12V16.2C27.0001 21.48 22.9801 27 18.0001 27C17.7001 27 17.4001 27 17.1001 26.94C21.6601 26.34 25.2001 21.18 25.2001 16.2Z" fill="#FD9808"/>
<path d="M28.2003 9.96002C28.2003 11.64 26.6402 12.96 24.9603 12.66C20.2803 11.82 15.5403 11.82 10.9802 12.66C9.30026 12.96 7.74023 11.64 7.74023 9.96002C7.80021 5.76005 11.1602 2.40002 15.3602 2.40002H20.7002C24.8402 2.40002 28.2003 5.76005 28.2003 9.96002Z" fill="#1CD759"/>
<path d="M20.6398 2.33997H19.8599C23.5799 2.81999 26.3998 5.93997 26.3998 9.77994C26.3998 11.0999 25.4998 12.1799 24.2998 12.42C24.5398 12.4799 24.7798 12.4799 25.0198 12.54C26.6998 12.84 28.2598 11.52 28.2598 9.83999C28.1998 5.69999 24.8398 2.33997 20.6398 2.33997Z" fill="#15A143"/>
<path d="M24.9599 12.6599C26.5199 12.96 28.0199 11.8199 28.1399 10.1999L24.9599 9.65992C20.2799 8.8199 15.5399 8.8199 10.9798 9.65992L7.7998 10.1999C7.91983 11.7599 9.41981 12.8999 10.9798 12.6599C15.5398 11.7599 20.2799 11.7599 24.9599 12.6599Z" fill="#15A143"/>
<path d="M16.8003 7.19997H19.2003V4.19995H16.8003V7.19997Z" fill="#54C9FD"/>
<path d="M15.0001 7.79998C15.0001 3.83998 11.7601 0.599976 7.8001 0.599976C3.8401 0.599976 0.600098 3.83998 0.600098 7.79998C0.600098 11.76 3.8401 15 7.8001 15C11.7601 15 15.0001 11.76 15.0001 7.79998Z" fill="#54C9FD"/>
<path d="M2.4001 7.79998C2.4001 4.14 5.16007 1.08 8.7001 0.659952C8.40007 0.599976 8.10012 0.599976 7.8001 0.599976C3.8401 0.599976 0.600098 3.83998 0.600098 7.79998C0.600098 11.76 3.8401 15 7.8001 15C8.10012 15 8.40007 15 8.7001 14.94C5.16014 14.52 2.4001 11.46 2.4001 7.79998Z" fill="white"/>
<path d="M33.9601 30.42C30.6602 28.68 27.4801 27.36 24.6001 27H24.3001L20.4001 32.4L18.0001 27L15.6001 32.4L11.7001 27H11.4001C8.5201 27.36 5.34007 28.68 2.0401 30.42C1.1401 30.9 0.600098 31.8 0.600098 32.82V35.4H15.0001H21.0001H27.0001H35.4001V32.82C35.4001 31.8 34.8601 30.9 33.9601 30.42Z" fill="#1CD759"/>
<path d="M33.9601 30.42C30.6602 28.68 27.4801 27.36 24.6001 27H24.3001L24.1201 27.24C26.6401 27.78 29.2801 28.92 32.1001 30.42C33.0001 30.9 33.5401 31.8 33.5401 32.82V35.4H35.3401V32.82C35.4001 31.8 34.8601 30.9 33.9601 30.42Z" fill="#15A143"/>
<path d="M11.5798 23.46L11.3998 23.4L10.7998 25.8L15.5998 32.4L17.9998 27C15.4798 27 13.1998 25.56 11.5798 23.46Z" fill="#FFDD09"/>
<path d="M24.42 23.46C22.8 25.56 20.52 27 18 27L20.4 32.4L25.2 25.8L24.6 23.4L24.42 23.46Z" fill="#FFDD09"/>
<path d="M2.04003 30.42C5.34 28.68 8.52003 27.36 11.4 27H11.7L11.8801 27.24C9.36005 27.78 6.72003 28.92 3.90007 30.42C2.9401 30.9 2.4001 31.8 2.4001 32.82V35.4H0.600098V32.82C0.600027 31.8 1.14003 30.9 2.04003 30.42Z" fill="white"/>
<path d="M15.6003 33C15.4203 33 15.2403 32.88 15.1202 32.76L10.3202 26.16C10.2002 25.98 10.2002 25.8 10.2002 25.68L10.8002 23.28C10.8601 23.1 10.9802 22.98 11.1602 22.86C11.3402 22.8001 11.5202 22.8001 11.7002 22.86L11.8802 22.92C11.9401 22.98 12.0002 23.04 12.0602 23.1C13.7401 25.2 15.8402 26.4 18.0002 26.4C18.1802 26.4 18.4201 26.52 18.4802 26.7C18.5402 26.88 18.6002 27.06 18.5402 27.3L16.1402 32.7C16.0802 32.88 15.8402 33.06 15.6602 33.06C15.6602 33 15.6003 33 15.6003 33ZM11.4603 25.6801L15.4802 31.2001L17.1002 27.5401C15.1802 27.3001 13.2603 26.2801 11.7002 24.6001L11.4603 25.6801Z" fill="black"/>
<path d="M20.3998 33H20.3398C20.0998 33 19.9198 32.82 19.8598 32.64L17.4598 27.24C17.3998 27.06 17.3998 26.82 17.5198 26.64C17.6398 26.46 17.8198 26.4 17.9998 26.4C20.2198 26.4 22.3198 25.26 23.9398 23.1C23.9998 23.0401 24.0598 22.98 24.1198 22.92L24.2998 22.8601C24.4798 22.8001 24.6598 22.74 24.8398 22.8601C25.0198 22.92 25.1398 23.1 25.1998 23.28L25.7998 25.68C25.8598 25.86 25.7998 26.04 25.6798 26.16L20.8798 32.76C20.7598 32.88 20.5798 33 20.3998 33ZM18.8998 27.54L20.5198 31.2L24.5398 25.6799L24.2998 24.5999C22.7398 26.28 20.8198 27.3 18.8998 27.54Z" fill="black"/>
<path d="M35.4 36H0.599977C0.239977 36 0 35.76 0 35.4V32.82C0 31.56 0.660024 30.4201 1.8 29.8801C5.76 27.78 8.69998 26.7 11.34 26.4001H11.4H11.7C11.88 26.4001 12.06 26.5201 12.18 26.6401L15.48 31.2L17.46 26.76C17.58 26.52 17.76 26.4 18 26.4C18.24 26.4 18.48 26.52 18.54 26.76L20.52 31.2L23.82 26.6401C23.94 26.4601 24.12 26.4001 24.3 26.4001H24.6H24.66C27.3 26.7001 30.24 27.7801 34.2 29.8801C35.28 30.48 36 31.6201 36 32.82V35.4C36 35.76 35.76 36 35.4 36ZM21 34.8H34.8V32.82C34.8 32.04 34.3801 31.32 33.6601 30.9C29.8801 28.92 27.06 27.8999 24.6001 27.5399L20.8801 32.7C20.76 32.88 20.5201 32.9399 20.3401 32.9399C20.1001 32.9399 19.9201 32.7599 19.86 32.5799L18 28.5L16.14 32.64C16.08 32.82 15.84 33 15.66 33C15.42 33 15.24 32.94 15.12 32.76L11.4 27.6C8.93995 27.9 6.17998 28.92 2.34 30.96C1.62 31.32 1.20002 32.04 1.20002 32.82V34.8H21Z" fill="black"/>
<path d="M19.2001 7.79995H16.8002C16.4402 7.79995 16.2002 7.55998 16.2002 7.19998V4.19995C16.2002 3.83995 16.4402 3.59998 16.8002 3.59998H19.2001C19.5601 3.59998 19.8001 3.83995 19.8001 4.19995V7.19998C19.8001 7.55998 19.5601 7.79995 19.2001 7.79995ZM17.4001 6.6H18.6002V4.8H17.4001V6.6Z" fill="black"/>
<path d="M11.3998 10.8C11.0398 10.8 10.7998 10.56 10.7998 10.2V9H8.39985C8.15987 9 7.97987 8.87998 7.85985 8.64C7.73983 8.40003 7.79987 8.15998 7.91983 7.97998L10.9198 4.37998C11.0998 4.19998 11.3398 4.14 11.5799 4.19998C11.8198 4.32 11.9998 4.55998 11.9998 4.79996V7.79998H12.5998C12.9598 7.79998 13.1998 8.03996 13.1998 8.39996C13.1998 8.75996 12.9598 9 12.5998 9H11.9998V10.2C11.9998 10.56 11.7598 10.8 11.3998 10.8ZM9.65985 7.79998H10.7998V6.48L9.65985 7.79998Z" fill="black"/>
<path d="M7.19998 10.8H3.9C3.54 10.8 3.23998 10.56 3.05998 10.26C2.93995 9.90003 3 9.54003 3.29995 9.30005L5.99995 6.96005C6.29998 6.66003 6.29998 6.24005 6.17995 6.00007C6.11998 5.82 5.93998 5.40003 5.39998 5.40003C4.73995 5.40003 4.19995 5.94003 4.19995 6.60005C4.19995 6.96005 3.95998 7.20003 3.59998 7.20003C3.23998 7.20003 3 6.96005 3 6.60005C3 5.28007 4.08 4.20007 5.39998 4.20007C6.29998 4.20007 6.96 4.6801 7.32 5.52005C7.62002 6.30003 7.44002 7.26007 6.83998 7.86005L4.73995 9.66005H7.19998C7.55998 9.66005 7.79995 9.90003 7.79995 10.26C7.79995 10.62 7.55998 10.8 7.19998 10.8Z" fill="black"/>
<path d="M7.79998 15.6C3.47998 15.6 0 12.12 0 7.79998C0 3.47998 3.47998 0 7.79998 0C12.12 0 15.6 3.47998 15.6 7.79998C15.6 12.12 12.12 15.6 7.79998 15.6ZM7.79998 1.20002C4.14 1.20002 1.19995 4.14 1.19995 7.80005C1.19995 11.4601 4.14 14.4 7.79998 14.4C11.46 14.4 14.4 11.46 14.4 7.79998C14.4 4.13993 11.46 1.20002 7.79998 1.20002Z" fill="black"/>
<path d="M25.4397 13.2601C25.2597 13.2601 25.0797 13.2601 24.8398 13.2001C21.0598 12.5401 17.2198 12.4201 13.4398 12.8401C13.1998 12.8401 12.9598 12.7201 12.8398 12.5401C12.7198 12.3001 12.7198 12.06 12.8998 11.88C13.8598 10.68 14.3398 9.30007 14.3398 7.80003C14.3398 6.06 13.6798 4.44 12.4798 3.18C12.3598 3.05998 12.2998 2.82 12.2998 2.64C12.3598 2.46 12.4798 2.28 12.7198 2.22003C13.6198 1.92 14.4598 1.80005 15.3598 1.80005H20.6998C25.1398 1.80005 28.7998 5.46003 28.7998 9.96003C28.7998 10.92 28.3798 11.88 27.5997 12.54C26.9998 13.02 26.2198 13.2601 25.4397 13.2601ZM17.9998 11.4C20.3398 11.4 22.7397 11.64 25.0797 12.06C25.6797 12.1801 26.3397 12.0001 26.8198 11.58C27.2998 11.16 27.5997 10.56 27.5997 9.96003C27.5997 6.12005 24.4798 3 20.6397 3H15.2998C14.8798 3 14.4597 3.05998 13.9798 3.12003C14.9998 4.44 15.5398 6.12005 15.5398 7.80003C15.5398 9.12 15.2398 10.38 14.5798 11.58C15.7798 11.4601 16.8598 11.4 17.9998 11.4Z" fill="black"/>
<path d="M25.5 13.2601C25.32 13.2601 25.08 13.2601 24.9 13.2001C21.12 12.5401 17.28 12.4201 13.5 12.8401C13.2601 12.8401 13.02 12.7201 12.9001 12.5401C12.78 12.3001 12.78 12.0601 12.96 11.8801C13.6201 11.04 14.1 10.0201 14.28 9.00006C14.34 8.76008 14.58 8.52003 14.82 8.52003C18.24 8.22001 21.66 8.40001 25.08 9.06003L28.26 9.60004C28.5601 9.66001 28.8 9.96003 28.7401 10.2601C28.6801 11.1601 28.2001 12.0601 27.4201 12.6001C26.8799 13.02 26.22 13.2601 25.5 13.2601ZM18 11.4C20.34 11.4 22.7399 11.64 25.0799 12.0601C25.6799 12.1801 26.28 12.0001 26.7599 11.6401C27.0599 11.4001 27.3599 11.0401 27.4799 10.6801L24.8999 10.2001C21.7199 9.66008 18.54 9.48008 15.3599 9.66008C15.1799 10.3201 14.94 10.9201 14.6399 11.5201C15.78 11.4601 16.86 11.4 18 11.4Z" fill="black"/>
<path d="M17.9999 27.5999C12.4799 27.5999 8.3999 21.6 8.3999 16.2V14.88C8.3999 14.58 8.63988 14.34 8.87993 14.28C10.4999 14.04 11.9399 13.14 12.9599 11.88C13.08 11.76 13.1999 11.7 13.3799 11.6401C17.2799 11.16 21.2399 11.2801 25.0799 12.0001C25.6199 12.1201 26.1599 12.0001 26.6399 11.6401C26.8199 11.52 27.0599 11.52 27.2399 11.5801C27.4199 11.7001 27.5399 11.8801 27.5399 12.1201V16.2C27.5999 21.6 23.5199 27.5999 17.9999 27.5999ZM9.59986 15.3599V16.2C9.59986 22.0199 14.0399 26.4 17.9999 26.4C21.9599 26.4 26.3999 22.0199 26.3999 16.2V13.14C25.9199 13.26 25.3799 13.32 24.8999 13.1999C21.1799 12.5399 17.4599 12.42 13.7399 12.8399C12.6599 14.0999 11.2199 14.9999 9.59986 15.3599Z" fill="black"/>
</svg>
