<svg width="244" height="28" viewBox="0 0 244 28" fill="none" xmlns="http://www.w3.org/2000/svg">
<path d="M6 8C6 4.67998 8.67998 2 12 2C15.32 2 18 4.67998 18 8V10.8C18 14.32 15.32 18 12 18C8.67998 18 6 14.32 6 10.8V8Z" fill="#FFDD09"/>
<path d="M16.7999 10.8V8C16.7999 4.88 14.4399 2.32002 11.3999 2.03998C11.5999 2 11.7999 2 11.9999 2C15.3199 2 17.9999 4.67998 17.9999 8V10.8C17.9999 14.32 15.3199 18 11.9999 18C11.7999 18 11.5999 18 11.3999 17.96C14.4399 17.56 16.7999 14.12 16.7999 10.8Z" fill="#FD9808"/>
<path d="M18.8002 6.63998C18.8002 7.75996 17.7602 8.63999 16.6402 8.43998C13.5202 7.87996 10.3602 7.87996 7.32016 8.43998C6.20017 8.63999 5.16016 7.75996 5.16016 6.63998C5.20014 3.83999 7.44016 1.59998 10.2401 1.59998H13.8002C16.5602 1.59998 18.8002 3.83999 18.8002 6.63998Z" fill="#1CD759"/>
<path d="M13.7602 1.56006H13.2402C15.7203 1.88007 17.6002 3.96006 17.6002 6.52004C17.6002 7.40003 17.0002 8.12003 16.2002 8.28006C16.3602 8.32004 16.5202 8.32004 16.6802 8.36007C17.8002 8.56009 18.8402 7.68006 18.8402 6.56007C18.8002 3.80007 16.5602 1.56006 13.7602 1.56006Z" fill="#15A143"/>
<path d="M16.6402 8.44005C17.6802 8.64006 18.6802 7.88003 18.7602 6.80003L16.6402 6.44003C13.5202 5.88002 10.3602 5.88002 7.32021 6.44003L5.2002 6.80003C5.28021 7.84005 6.2802 8.60003 7.32021 8.44005C10.3602 7.84005 13.5202 7.84005 16.6402 8.44005Z" fill="#15A143"/>
<path d="M11.1997 4.80006H12.7997V2.80005H11.1997V4.80006Z" fill="#54C9FD"/>
<path d="M9.9999 5.20002C9.9999 2.56002 7.8399 0.400024 5.1999 0.400024C2.5599 0.400024 0.399902 2.56002 0.399902 5.20002C0.399902 7.84002 2.5599 10 5.1999 10C7.8399 10 9.9999 7.84002 9.9999 5.20002Z" fill="#54C9FD"/>
<path d="M1.5999 5.20002C1.5999 2.76004 3.43989 0.72004 5.7999 0.440009C5.59989 0.400024 5.39992 0.400024 5.1999 0.400024C2.5599 0.400024 0.399902 2.56002 0.399902 5.20002C0.399902 7.84002 2.5599 10 5.1999 10C5.39992 10 5.59989 10 5.7999 9.96004C3.43993 9.68006 1.5999 7.64006 1.5999 5.20002Z" fill="white"/>
<path d="M22.6399 20.28C20.44 19.12 18.3199 18.24 16.3999 18H16.1999L13.5999 21.6L11.9999 18L10.3999 21.6L7.79992 18H7.5999C5.6799 18.24 3.55989 19.12 1.3599 20.28C0.759902 20.6 0.399902 21.2 0.399902 21.88V23.6H9.9999H13.9999H17.9999H23.5999V21.88C23.5999 21.2 23.2399 20.6 22.6399 20.28Z" fill="#1CD759"/>
<path d="M22.6401 20.28C20.4401 19.12 18.3201 18.24 16.4001 18H16.2001L16.0801 18.16C17.7601 18.52 19.5201 19.28 21.4001 20.28C22.0001 20.6 22.3601 21.2 22.3601 21.88V23.6H23.5601V21.88C23.6001 21.2 23.2401 20.6 22.6401 20.28Z" fill="#15A143"/>
<path d="M7.72018 15.64L7.60018 15.6L7.2002 17.2L10.4002 21.6L12.0002 18C10.3202 18 8.80018 17.04 7.72018 15.64Z" fill="#FFDD09"/>
<path d="M16.28 15.64C15.2 17.04 13.68 18 12 18L13.6 21.6L16.8 17.2L16.4 15.6L16.28 15.64Z" fill="#FFDD09"/>
<path d="M1.35986 20.28C3.55984 19.12 5.67986 18.24 7.59986 18H7.79987L7.91987 18.16C6.23987 18.52 4.47986 19.28 2.59989 20.28C1.9599 20.6 1.5999 21.2 1.5999 21.88V23.6H0.399902V21.88C0.399855 21.2 0.759855 20.6 1.35986 20.28Z" fill="white"/>
<path d="M10.3999 21.9999C10.2799 21.9999 10.1599 21.9199 10.0798 21.84L6.87982 17.4399C6.7998 17.3199 6.7998 17.1999 6.7998 17.1199L7.19979 15.5199C7.23977 15.3999 7.31979 15.3199 7.43979 15.2399C7.55979 15.2 7.67979 15.2 7.79979 15.2399L7.91979 15.2799C7.95977 15.3199 7.9998 15.3599 8.03979 15.3999C9.15977 16.7999 10.5598 17.5999 11.9998 17.5999C12.1198 17.5999 12.2798 17.6799 12.3198 17.7999C12.3598 17.9199 12.3998 18.0399 12.3598 18.1999L10.7598 21.7999C10.7198 21.9199 10.5598 22.0399 10.4398 22.0399C10.4398 21.9999 10.3999 21.9999 10.3999 21.9999ZM7.63985 17.12L10.3198 20.8L11.3998 18.36C10.1198 18.2 8.83985 17.52 7.79984 16.4L7.63985 17.12Z" fill="black"/>
<path d="M13.6 22H13.56C13.4 22 13.28 21.88 13.24 21.76L11.64 18.16C11.6 18.04 11.6 17.88 11.68 17.76C11.76 17.64 11.88 17.6 12 17.6C13.48 17.6 14.88 16.84 15.96 15.4C16 15.36 16.04 15.32 16.08 15.28L16.2 15.24C16.32 15.2001 16.44 15.16 16.56 15.24C16.68 15.28 16.76 15.4 16.8 15.52L17.2 17.12C17.24 17.24 17.2 17.36 17.12 17.44L13.92 21.84C13.84 21.92 13.72 22 13.6 22ZM12.6 18.36L13.68 20.8L16.36 17.12L16.2 16.4C15.16 17.52 13.88 18.2 12.6 18.36Z" fill="black"/>
<path d="M23.6 24H0.399984C0.159984 24 0 23.84 0 23.6V21.88C0 21.04 0.440016 20.28 1.2 19.92C3.84 18.52 5.79998 17.8 7.56 17.6H7.59998H7.8C7.92 17.6 8.04 17.68 8.12002 17.76L10.32 20.8L11.64 17.84C11.72 17.68 11.84 17.6 12 17.6C12.16 17.6 12.32 17.68 12.36 17.84L13.68 20.8L15.88 17.76C15.96 17.64 16.08 17.6 16.2 17.6H16.4H16.44C18.2 17.8 20.16 18.52 22.8 19.92C23.52 20.32 24 21.08 24 21.88V23.6C24 23.84 23.84 24 23.6 24ZM14 23.1999H23.2V21.8799C23.2 21.36 22.92 20.88 22.44 20.5999C19.92 19.2799 18.04 18.5999 16.4001 18.3599L13.92 21.7999C13.84 21.9199 13.68 21.9599 13.56 21.9599C13.4001 21.9599 13.2801 21.8399 13.24 21.7199L12 18.9999L10.76 21.7599C10.72 21.8799 10.56 21.9999 10.44 21.9999C10.28 21.9999 10.16 21.96 10.08 21.84L7.59998 18.3999C5.95997 18.6 4.11998 19.2799 1.56 20.64C1.08 20.88 0.800016 21.36 0.800016 21.8799V23.1999H14Z" fill="black"/>
<path d="M12.7998 5.20001H11.1998C10.9598 5.20001 10.7998 5.04002 10.7998 4.80002V2.80001C10.7998 2.56001 10.9598 2.40002 11.1998 2.40002H12.7998C13.0398 2.40002 13.1998 2.56001 13.1998 2.80001V4.80002C13.1998 5.04002 13.0398 5.20001 12.7998 5.20001ZM11.5998 4.40004H12.3998V3.20004H11.5998V4.40004Z" fill="black"/>
<path d="M7.59987 7.20004C7.35987 7.20004 7.19988 7.04006 7.19988 6.80006V6.00004H5.5999C5.43992 6.00004 5.31992 5.92003 5.2399 5.76004C5.15988 5.60006 5.19991 5.44003 5.27988 5.32003L7.2799 2.92003C7.3999 2.80003 7.55988 2.76004 7.71991 2.80003C7.8799 2.88004 7.9999 3.04003 7.9999 3.20001V5.20003H8.39988C8.63988 5.20003 8.79987 5.36001 8.79987 5.60001C8.79987 5.84001 8.63988 6.00004 8.39988 6.00004H7.9999V6.80006C7.9999 7.04006 7.83987 7.20004 7.59987 7.20004ZM6.4399 5.20003H7.19988V4.32004L6.4399 5.20003Z" fill="black"/>
<path d="M4.79998 7.20002H2.6C2.36 7.20002 2.15998 7.04003 2.03998 6.84002C1.95997 6.60002 2 6.36002 2.19997 6.20003L3.99997 4.64003C4.19998 4.44002 4.19998 4.16003 4.11997 4.00005C4.07998 3.88 3.95998 3.60002 3.59998 3.60002C3.15997 3.60002 2.79997 3.96002 2.79997 4.40003C2.79997 4.64003 2.63998 4.80002 2.39998 4.80002C2.15998 4.80002 2 4.64003 2 4.40003C2 3.52005 2.72 2.80005 3.59998 2.80005C4.19998 2.80005 4.64 3.12006 4.88 3.68003C5.08002 4.20002 4.96002 4.84005 4.55998 5.24003L3.15997 6.44003H4.79998C5.03998 6.44003 5.19997 6.60002 5.19997 6.84002C5.19997 7.08002 5.03998 7.20002 4.79998 7.20002Z" fill="black"/>
<path d="M5.19998 10.4C2.31998 10.4 0 8.07998 0 5.19998C0 2.31998 2.31998 0 5.19998 0C8.07998 0 10.4 2.31998 10.4 5.19998C10.4 8.07998 8.07998 10.4 5.19998 10.4ZM5.19998 0.800016C2.76 0.800016 0.799969 2.76 0.799969 5.20003C0.799969 7.64006 2.76 9.6 5.19998 9.6C7.63997 9.6 9.6 7.64002 9.6 5.19998C9.6 2.75995 7.64002 0.800016 5.19998 0.800016Z" fill="black"/>
<path d="M16.9601 8.83997C16.8401 8.83997 16.7201 8.83997 16.5602 8.79998C14.0402 8.35997 11.4802 8.28 8.96018 8.55998C8.8002 8.55998 8.64016 8.47997 8.56019 8.35997C8.48018 8.19998 8.48018 8.03995 8.60018 7.91995C9.24016 7.11994 9.56018 6.19997 9.56018 5.19994C9.56018 4.03992 9.12016 2.95992 8.3202 2.11992C8.24018 2.0399 8.2002 1.87992 8.2002 1.75992C8.24018 1.63992 8.32019 1.51992 8.48018 1.47994C9.08018 1.27992 9.64019 1.19995 10.2402 1.19995H13.8002C16.7602 1.19995 19.2002 3.63994 19.2002 6.63994C19.2002 7.27992 18.9202 7.91995 18.4001 8.35992C18.0002 8.67993 17.4802 8.83997 16.9601 8.83997ZM12.0002 7.59994C13.5602 7.59994 15.1601 7.75992 16.7201 8.03995C17.1201 8.11997 17.5601 7.99997 17.8802 7.71993C18.2002 7.43995 18.4001 7.03992 18.4001 6.63994C18.4001 4.07995 16.3202 1.99992 13.7601 1.99992H10.2002C9.92018 1.99992 9.64015 2.0399 9.32018 2.07994C10.0002 2.95992 10.3602 4.07995 10.3602 5.19994C10.3602 6.07992 10.1602 6.91992 9.72021 7.71993C10.5202 7.63997 11.2402 7.59994 12.0002 7.59994Z" fill="black"/>
<path d="M17.0002 8.83997C16.8802 8.83997 16.7202 8.83997 16.6002 8.79999C14.0802 8.35997 11.5202 8.28 9.00019 8.55999C8.8402 8.55999 8.68017 8.47997 8.6002 8.35997C8.52019 8.19999 8.52019 8.03996 8.64019 7.91996C9.0802 7.35994 9.40017 6.67997 9.52017 5.99996C9.56015 5.83997 9.72019 5.67994 9.88017 5.67994C12.1602 5.47993 14.4402 5.59993 16.7202 6.03994L18.8402 6.39994C19.0402 6.43993 19.2002 6.63994 19.1602 6.83996C19.1202 7.43996 18.8002 8.03996 18.2802 8.39996C17.9201 8.67994 17.4802 8.83997 17.0002 8.83997ZM12.0001 7.59994C13.5601 7.59994 15.1601 7.75993 16.7201 8.03996C17.1201 8.11997 17.5201 7.99997 17.8401 7.75997C18.0401 7.59999 18.2401 7.35999 18.3201 7.11999L16.6001 6.79997C14.4801 6.43997 12.3601 6.31997 10.2401 6.43997C10.1201 6.87999 9.96014 7.27997 9.76012 7.67996C10.5202 7.63997 11.2402 7.59994 12.0001 7.59994Z" fill="black"/>
<path d="M12.0001 18.4C8.32007 18.4 5.6001 14.4001 5.6001 10.8001V9.92007C5.6001 9.72006 5.76008 9.56007 5.92011 9.52009C7.00011 9.36011 7.96011 8.76011 8.64013 7.92011C8.72014 7.84009 8.80011 7.80011 8.92011 7.76012C11.5201 7.44011 14.1601 7.52012 16.7201 8.00012C17.0801 8.08014 17.4401 8.00012 17.7601 7.76012C17.8801 7.68011 18.0401 7.68011 18.1601 7.72014C18.2801 7.80015 18.3601 7.92015 18.3601 8.08014V10.8001C18.4001 14.4001 15.6801 18.4 12.0001 18.4ZM6.40007 10.24V10.8001C6.40007 14.68 9.36008 17.6001 12.0001 17.6001C14.6401 17.6001 17.6001 14.68 17.6001 10.8001V8.76006C17.2801 8.84008 16.9201 8.88006 16.6001 8.80004C14.1201 8.36003 11.6401 8.28006 9.16011 8.56004C8.44007 9.40004 7.48007 10 6.40007 10.24Z" fill="black"/>
<path d="M37.1342 20L32.826 14.2791H31.6626V20H29.2912V6.90909H31.6626V12.2912H32.2571L36.9105 6.90909H39.8317L34.6605 12.8793L40.0554 20H37.1342ZM42.2814 23.6818C41.9661 23.6818 41.6742 23.6563 41.4057 23.6051C41.1415 23.5582 40.9306 23.5028 40.7729 23.4389L41.3098 21.6364C41.6465 21.7344 41.9469 21.7813 42.2111 21.777C42.4753 21.7727 42.7076 21.6896 42.9078 21.5277C43.1124 21.37 43.285 21.1058 43.4256 20.7351L43.6238 20.2045L40.0634 10.1818H42.5179L44.7807 17.5966H44.883L47.1522 10.1818H49.6131L45.682 21.1889C45.4988 21.7088 45.2559 22.1541 44.9533 22.5249C44.6507 22.8999 44.28 23.1854 43.8411 23.3814C43.4064 23.5817 42.8865 23.6818 42.2814 23.6818ZM51.2143 23.6818V10.1818H53.4899V11.8054H53.6241C53.7434 11.5668 53.9118 11.3132 54.1291 11.0447C54.3464 10.772 54.6404 10.5398 55.0112 10.348C55.3819 10.152 55.8549 10.054 56.4302 10.054C57.1887 10.054 57.8727 10.2479 58.4821 10.6357C59.0957 11.0192 59.5815 11.5881 59.9395 12.3423C60.3017 13.0923 60.4828 14.0128 60.4828 15.1037C60.4828 16.1818 60.3059 17.098 59.9522 17.8523C59.5985 18.6065 59.117 19.1818 58.5076 19.5781C57.8983 19.9744 57.2079 20.1726 56.4366 20.1726C55.8741 20.1726 55.4075 20.0788 55.0368 19.8913C54.666 19.7038 54.3677 19.478 54.1419 19.2138C53.9203 18.9453 53.7477 18.6918 53.6241 18.4531H53.5282V23.6818H51.2143ZM53.4835 15.0909C53.4835 15.7259 53.573 16.282 53.752 16.7592C53.9352 17.2365 54.1973 17.6094 54.5382 17.8778C54.8833 18.142 55.301 18.2741 55.791 18.2741C56.3024 18.2741 56.7306 18.1378 57.0758 17.8651C57.421 17.5881 57.6809 17.2109 57.8556 16.7337C58.0346 16.2521 58.1241 15.7045 58.1241 15.0909C58.1241 14.4815 58.0368 13.9403 57.862 13.4673C57.6873 12.9943 57.4274 12.6236 57.0822 12.3551C56.737 12.0866 56.3066 11.9524 55.791 11.9524C55.2967 11.9524 54.877 12.0824 54.5318 12.3423C54.1866 12.6023 53.9245 12.9666 53.7456 13.4354C53.5708 13.9041 53.4835 14.456 53.4835 15.0909ZM64.0304 13.3778H66.926C68.1788 13.3778 69.1483 13.6825 69.8343 14.2919C70.5204 14.9013 70.8656 15.7003 70.8699 16.6889C70.8656 17.3324 70.7079 17.9034 70.3968 18.402C70.09 18.9006 69.6426 19.2926 69.0545 19.5781C68.4707 19.8594 67.7612 20 66.926 20H62.4643V10.1818H64.6951V18.1016H66.926C67.4288 18.1016 67.8422 17.9737 68.166 17.718C68.4899 17.4581 68.6518 17.1257 68.6518 16.7209C68.6518 16.2947 68.4899 15.9474 68.166 15.679C67.8422 15.4105 67.4288 15.2763 66.926 15.2763H64.0304V13.3778ZM77.1996 20.1918C76.2152 20.1918 75.3651 19.9872 74.6491 19.5781C73.9375 19.1648 73.3899 18.581 73.0064 17.8267C72.6229 17.0682 72.4311 16.1754 72.4311 15.1484C72.4311 14.1385 72.6229 13.2521 73.0064 12.4893C73.3942 11.7223 73.9354 11.1257 74.63 10.6996C75.3246 10.2692 76.1406 10.054 77.0781 10.054C77.6832 10.054 78.2543 10.152 78.7912 10.348C79.3324 10.5398 79.8097 10.8381 80.223 11.2429C80.6406 11.6477 80.9688 12.1634 81.2074 12.7898C81.446 13.4119 81.5653 14.1534 81.5653 15.0142V15.7237H73.5178V14.1641H79.3473C79.343 13.7209 79.2472 13.3267 79.0597 12.9815C78.8722 12.6321 78.6101 12.3572 78.2734 12.157C77.9411 11.9567 77.5533 11.8565 77.1101 11.8565C76.6371 11.8565 76.2216 11.9716 75.8636 12.2017C75.5057 12.4276 75.2266 12.7259 75.0263 13.0966C74.8303 13.4631 74.7301 13.8658 74.7259 14.3047V15.6662C74.7259 16.2372 74.8303 16.7273 75.0391 17.1364C75.2479 17.5412 75.5398 17.8523 75.9148 18.0696C76.2898 18.2827 76.7287 18.3892 77.2315 18.3892C77.5682 18.3892 77.8729 18.3423 78.1456 18.2486C78.4183 18.1506 78.6548 18.0078 78.8551 17.8203C79.0554 17.6328 79.2067 17.4006 79.3089 17.1236L81.4695 17.3665C81.3331 17.9375 81.0732 18.4361 80.6896 18.8622C80.3104 19.2841 79.8246 19.6122 79.2322 19.8466C78.6399 20.0767 77.9624 20.1918 77.1996 20.1918ZM83.5229 23.6818V10.1818H85.7985V11.8054H85.9327C86.052 11.5668 86.2203 11.3132 86.4377 11.0447C86.655 10.772 86.949 10.5398 87.3198 10.348C87.6905 10.152 88.1635 10.054 88.7388 10.054C89.4973 10.054 90.1813 10.2479 90.7907 10.6357C91.4043 11.0192 91.8901 11.5881 92.248 12.3423C92.6103 13.0923 92.7914 14.0128 92.7914 15.1037C92.7914 16.1818 92.6145 17.098 92.2608 17.8523C91.9071 18.6065 91.4256 19.1818 90.8162 19.5781C90.2069 19.9744 89.5165 20.1726 88.7452 20.1726C88.1827 20.1726 87.7161 20.0788 87.3453 19.8913C86.9746 19.7038 86.6763 19.478 86.4505 19.2138C86.2289 18.9453 86.0563 18.6918 85.9327 18.4531H85.8368V23.6818H83.5229ZM85.7921 15.0909C85.7921 15.7259 85.8816 16.282 86.0605 16.7592C86.2438 17.2365 86.5059 17.6094 86.8468 17.8778C87.1919 18.142 87.6096 18.2741 88.0996 18.2741C88.611 18.2741 89.0392 18.1378 89.3844 17.8651C89.7296 17.5881 89.9895 17.2109 90.1642 16.7337C90.3432 16.2521 90.4327 15.7045 90.4327 15.0909C90.4327 14.4815 90.3453 13.9403 90.1706 13.4673C89.9959 12.9943 89.736 12.6236 89.3908 12.3551C89.0456 12.0866 88.6152 11.9524 88.0996 11.9524C87.6053 11.9524 87.1855 12.0824 86.8404 12.3423C86.4952 12.6023 86.2331 12.9666 86.0542 13.4354C85.8794 13.9041 85.7921 14.456 85.7921 15.0909ZM99.2122 20V18.2869L103.757 13.8317C104.192 13.3928 104.554 13.0028 104.844 12.6619C105.133 12.321 105.351 11.9908 105.496 11.6712C105.64 11.3516 105.713 11.0107 105.713 10.6484C105.713 10.2351 105.619 9.88139 105.432 9.58736C105.244 9.28906 104.986 9.05895 104.658 8.89702C104.33 8.73508 103.957 8.65412 103.54 8.65412C103.109 8.65412 102.732 8.74361 102.408 8.92259C102.084 9.0973 101.833 9.34659 101.654 9.67045C101.479 9.99432 101.392 10.38 101.392 10.8274H99.1355C99.1355 9.99645 99.3251 9.27415 99.7044 8.66051C100.084 8.04687 100.606 7.57173 101.27 7.23509C101.939 6.89844 102.706 6.73011 103.572 6.73011C104.449 6.73011 105.221 6.89418 105.885 7.2223C106.55 7.55043 107.066 8 107.432 8.57102C107.803 9.14204 107.988 9.79403 107.988 10.527C107.988 11.017 107.895 11.4986 107.707 11.9716C107.52 12.4446 107.189 12.9687 106.716 13.544C106.248 14.1193 105.589 14.8161 104.741 15.6342L102.485 17.929V18.0185H108.187V20H99.2122ZM109.874 17.571V15.6854L115.429 6.90909H117.001V9.59375H116.042L112.303 15.5192V15.6214H120.057V17.571H109.874ZM116.119 20V16.9957L116.145 16.152V6.90909H118.382V20H116.119Z" fill="black"/>
<mask id="mask0_107_39" style="mask-type:luminance" maskUnits="userSpaceOnUse" x="131" y="2" width="113" height="26">
<path d="M244 2H131V28H244V2Z" fill="white"/>
</mask>
<g mask="url(#mask0_107_39)">
<path fill-rule="evenodd" clip-rule="evenodd" d="M157.974 18.8507V9.3728H165.9V18.8507H163.964V11.1845H159.91V18.8507H157.974ZM171.563 13.3891H170.464C169.549 13.3891 169.091 13.7064 169.091 14.3269C169.091 14.935 169.536 15.2389 170.425 15.2389C170.818 15.2389 171.197 15.2141 171.563 15.1507V13.3891ZM173.355 11.9448V18.8502H171.563V16.4543C171.216 16.5157 170.848 16.5965 170.404 16.6089L168.921 18.8502H166.907L168.678 16.3651C167.749 15.9849 167.26 15.3282 167.26 14.3016C167.26 12.8949 168.319 11.9448 170.412 11.9448H173.355ZM185.466 12.5277C186.015 13.0471 186.29 13.7569 186.29 14.6818V18.8502H184.446V15.0109C184.446 13.9596 183.871 13.402 183.02 13.402C182.091 13.402 181.451 14.0483 181.451 15.0619V18.8507H179.607V15.0243C179.607 13.9978 179.044 13.402 178.168 13.402C177.266 13.402 176.612 14.0483 176.612 15.0748V18.8507H174.768V11.9448H176.572V12.9331C176.978 12.2109 177.815 11.7425 178.743 11.7549C179.633 11.7549 180.457 12.1732 180.836 12.9713C181.359 12.2109 182.327 11.7549 183.386 11.7549C184.237 11.7549 184.93 12.0072 185.466 12.5277ZM200.729 16.8101C201.096 16.4299 201.279 15.9616 201.279 15.4044C201.279 14.8464 201.096 14.3779 200.729 13.9973C200.363 13.6176 199.892 13.4273 199.304 13.4273C198.729 13.4273 198.257 13.6176 197.892 13.9973C197.525 14.3779 197.342 14.8464 197.342 15.4044C197.342 15.9616 197.526 16.4305 197.892 16.8106C198.258 17.1908 198.729 17.3806 199.304 17.3806C199.892 17.3806 200.363 17.1903 200.729 16.8101ZM202.142 12.8191C202.809 13.516 203.136 14.3779 203.136 15.3915C203.136 16.4052 202.796 17.2666 202.129 17.964C201.462 18.6604 200.625 19.0148 199.617 19.0148C198.742 19.0148 197.933 18.6441 197.381 17.9878V21.6889H195.537V11.9448H197.368V12.8508C197.954 12.143 198.729 11.7678 199.631 11.7678C200.638 11.7678 201.475 12.1222 202.142 12.8191ZM207.622 17.3683C208.184 17.3683 208.642 17.1779 209.021 16.7978C209.401 16.4052 209.597 15.9363 209.597 15.3915C209.597 14.8463 209.401 14.3779 209.022 13.9977C208.642 13.6176 208.184 13.4278 207.622 13.4278C207.06 13.4278 206.589 13.6176 206.21 13.9977C205.831 14.3779 205.648 14.8468 205.648 15.3915C205.648 15.9363 205.831 16.4052 206.21 16.7978C206.589 17.1779 207.06 17.3683 207.622 17.3683ZM204.876 12.8191C205.595 12.1093 206.511 11.7549 207.622 11.7549C208.734 11.7549 209.649 12.1093 210.369 12.8191C211.088 13.516 211.441 14.3779 211.441 15.3915C211.441 16.4176 211.088 17.2795 210.369 17.9764C209.649 18.6728 208.734 19.0282 207.622 19.0282C206.511 19.0282 205.595 18.6728 204.876 17.9764C204.156 17.2795 203.803 16.418 203.803 15.3915C203.803 14.3779 204.156 13.516 204.876 12.8191ZM216.634 11.9448H218.479V18.8507H216.634V16.5261C216.094 16.825 215.509 16.9752 215.051 16.9752C214.201 16.9752 213.573 16.8231 213.011 16.4557C212.449 16.0631 212.135 15.3282 212.135 14.2635V11.9448H213.966V14.1371C213.966 14.948 214.397 15.3534 215.261 15.3534C215.745 15.3534 216.157 15.2879 216.634 15.1031L216.634 11.9448ZM224.573 18.8507L221.735 15.6617V18.8507H219.891V11.9344H221.735V14.6744L224.324 11.9448H226.652L223.474 15.1432L226.836 18.8507H224.573Z" fill="#EB2316"/>
<path fill-rule="evenodd" clip-rule="evenodd" d="M231.699 13.9863C231.319 13.5933 230.848 13.4034 230.273 13.4034C229.684 13.4034 229.213 13.5933 228.834 13.9863C228.468 14.3793 228.284 14.8478 228.284 15.3925C228.284 15.9501 228.468 16.419 228.847 16.812C229.226 17.2046 229.697 17.3944 230.273 17.3944C230.848 17.3944 231.319 17.2046 231.699 16.812C232.078 16.419 232.273 15.9501 232.273 15.3925C232.273 14.8478 232.078 14.3793 231.699 13.9863ZM232.248 11.9462H234V18.8517H232.248V17.9397C231.635 18.6593 230.874 19.0167 229.972 19.0167C228.952 19.0167 228.102 18.6747 227.434 17.9778C226.767 17.2809 226.441 16.4066 226.441 15.3677C226.441 14.3283 226.781 13.4669 227.448 12.7952C228.115 12.1112 228.965 11.7692 229.972 11.7692C230.861 11.7692 231.646 12.1608 232.248 12.8518V11.9462ZM191.395 10.2104C191.395 9.61512 191.879 9.17151 192.506 9.17151C193.121 9.17151 193.592 9.6404 193.592 10.2104C193.592 10.8315 193.121 11.2875 192.506 11.2875C191.879 11.2875 191.395 10.8315 191.395 10.2104ZM189.119 14.6961H192.742C192.572 13.796 191.905 13.2518 190.963 13.2518C190.034 13.2518 189.341 13.7964 189.119 14.6961ZM189.655 9.17151C190.27 9.17151 190.754 9.6404 190.754 10.2104C190.754 10.8315 190.283 11.2875 189.655 11.2875C189.027 11.2875 188.557 10.8315 188.557 10.2104C188.557 9.6404 189.041 9.17151 189.655 9.17151ZM194.468 16.0264H189.119C189.381 17.0019 190.074 17.496 191.199 17.496C191.97 17.496 192.829 17.216 193.481 16.7154L194.223 17.8469C193.323 18.6633 192.297 19.0038 191.12 19.0038C189.864 19.0038 188.909 18.6494 188.243 17.9526C187.576 17.2556 187.249 16.3937 187.249 15.393C187.249 14.3412 187.589 13.4798 188.282 12.7958C188.975 12.1112 189.865 11.7688 190.963 11.7688C191.997 11.7688 192.859 12.0854 193.526 12.7066C194.194 13.3276 194.534 14.1638 194.534 15.2403C194.534 15.4812 194.508 15.7479 194.468 16.0264Z" fill="#EB2316"/>
<path fill-rule="evenodd" clip-rule="evenodd" d="M143.021 2C136.392 2 131 7.23512 131 13.6702C131 20.1053 136.392 25.3405 143.021 25.3405C149.649 25.3405 155.042 20.1053 155.042 13.6702C155.042 7.23512 149.649 2 143.021 2Z" fill="white"/>
<path fill-rule="evenodd" clip-rule="evenodd" d="M149.093 5.29919C148.176 7.58367 146.087 8.05901 143.061 8.05901C142.737 8.05901 142.415 8.05405 142.105 8.04959C141.804 8.04562 141.521 8.04117 141.242 8.04117C140.995 8.04117 140.746 8.04414 140.5 8.05454C140.924 7.0444 141.601 6.35792 142.564 5.94157C143.906 5.36165 145.651 5.3557 147.191 5.35123C147.862 5.34876 148.504 5.34628 149.093 5.29919Z" fill="#008F32"/>
<path fill-rule="evenodd" clip-rule="evenodd" d="M150.024 6.03333C148.667 8.90318 145.643 9.19066 143.05 9.19066C142.481 9.19066 141.935 9.17728 141.431 9.17431L140.778 11.6536C144.122 9.00677 148.544 11.6308 148.071 15.6248C147.753 18.3147 145.777 20.0738 143.688 20.5794C141.411 21.1306 138.889 20.3058 137.758 18.0535C137.638 17.8156 137.429 17.3388 137.35 17.084L139.75 16.4853C139.793 16.6195 139.865 16.7494 139.94 16.8679C141.547 19.3843 144.804 18.1259 145.172 15.5152C145.546 12.8595 141.708 11.4449 139.959 14.5487L137.83 13.668L137.793 13.6521L138.82 9.65063C138.883 9.36612 139.096 8.57159 139.133 8.44123C140.294 4.29853 144.048 4.2331 147.059 4.2222C145.814 3.71911 144.448 3.44055 143.015 3.44055C137.195 3.44055 132.478 8.02042 132.478 13.6709C132.478 19.3214 137.195 23.9012 143.015 23.9012C148.835 23.9012 153.553 19.3214 153.553 13.6709C153.553 10.6335 152.189 7.90691 150.024 6.03333Z" fill="#EB2316"/>
</g>
<rect x="127" y="2" width="1" height="26" fill="#A9A9A9"/>
</svg>
