<svg width="501" height="218" viewBox="0 0 501 218" fill="none" xmlns="http://www.w3.org/2000/svg">
<rect width="501" height="218" rx="30" fill="#EFC0C0"/>
<mask id="mask0_111_42" style="mask-type:luminance" maskUnits="userSpaceOnUse" x="62" y="62" width="377" height="94">
<path d="M438.375 62.2856H62.625V155.714H438.375V62.2856Z" fill="white"/>
</mask>
<g mask="url(#mask0_111_42)">
<path fill-rule="evenodd" clip-rule="evenodd" d="M160.904 128.458V91.2388H189.781V128.458H182.728V98.3531H167.956V128.458H160.904ZM210.414 107.011H206.411C203.076 107.011 201.407 108.257 201.407 110.693C201.407 113.081 203.029 114.275 206.27 114.275C207.7 114.275 209.08 114.177 210.414 113.928V107.011ZM216.943 101.339V128.456H210.414V119.048C209.149 119.289 207.81 119.606 206.192 119.655L200.788 128.456H193.45L199.904 118.697C196.519 117.204 194.737 114.625 194.737 110.594C194.737 105.07 198.595 101.339 206.221 101.339H216.943ZM261.07 103.628C263.069 105.668 264.07 108.455 264.07 112.087V128.456H257.353V113.379C257.353 109.251 255.257 107.061 252.158 107.061C248.772 107.061 246.44 109.599 246.44 113.58V128.458H239.721V113.432C239.721 109.401 237.671 107.061 234.479 107.061C231.192 107.061 228.809 109.599 228.809 113.631V128.458H222.09V101.339H228.666V105.22C230.143 102.384 233.192 100.545 236.575 100.593C239.816 100.593 242.818 102.236 244.2 105.37C246.107 102.384 249.632 100.593 253.491 100.593C256.59 100.593 259.115 101.584 261.07 103.628ZM316.681 120.445C318.014 118.952 318.682 117.113 318.682 114.925C318.682 112.733 318.014 110.894 316.681 109.399C315.347 107.908 313.63 107.161 311.487 107.161C309.391 107.161 307.674 107.908 306.342 109.399C305.006 110.894 304.339 112.733 304.339 114.925C304.339 117.113 305.008 118.954 306.342 120.447C307.676 121.94 309.391 122.685 311.487 122.685C313.63 122.685 315.347 121.938 316.681 120.445ZM321.828 104.772C324.257 107.509 325.449 110.894 325.449 114.874C325.449 118.855 324.211 122.237 321.779 124.976C319.35 127.711 316.301 129.103 312.629 129.103C309.439 129.103 306.493 127.647 304.482 125.07V139.604H297.763V101.339H304.433V104.897C306.567 102.117 309.391 100.644 312.678 100.644C316.348 100.644 319.397 102.035 321.828 104.772ZM341.794 122.637C343.843 122.637 345.511 121.889 346.891 120.396C348.275 118.855 348.99 117.013 348.99 114.874C348.99 112.733 348.275 110.894 346.893 109.401C345.511 107.908 343.843 107.162 341.794 107.162C339.745 107.162 338.03 107.908 336.648 109.401C335.267 110.894 334.599 112.735 334.599 114.874C334.599 117.013 335.267 118.855 336.648 120.396C338.03 121.889 339.745 122.637 341.794 122.637ZM331.787 104.772C334.41 101.985 337.745 100.593 341.794 100.593C345.844 100.593 349.179 101.985 351.802 104.772C354.421 107.509 355.708 110.894 355.708 114.874C355.708 118.903 354.421 122.288 351.802 125.025C349.179 127.76 345.844 129.155 341.794 129.155C337.745 129.155 334.41 127.76 331.787 125.025C329.166 122.288 327.881 118.905 327.881 114.874C327.881 110.894 329.166 107.509 331.787 104.772ZM374.626 101.339H381.348V128.458H374.626V119.33C372.66 120.503 370.53 121.093 368.86 121.093C365.764 121.093 363.476 120.496 361.426 119.053C359.38 117.512 358.236 114.625 358.236 110.444V101.339H364.907V109.948C364.907 113.132 366.479 114.724 369.624 114.724C371.388 114.724 372.891 114.467 374.628 113.741L374.626 101.339ZM403.552 128.458L393.213 115.935V128.458H386.493V101.298H393.213V112.058L402.647 101.339H411.13L399.55 113.899L411.797 128.458H403.552Z" fill="#EB2316"/>
<path fill-rule="evenodd" clip-rule="evenodd" d="M429.513 109.356C428.129 107.812 426.413 107.067 424.319 107.067C422.174 107.067 420.458 107.812 419.077 109.356C417.743 110.899 417.073 112.739 417.073 114.878C417.073 117.068 417.743 118.909 419.124 120.452C420.505 121.994 422.221 122.739 424.319 122.739C426.413 122.739 428.129 121.994 429.513 120.452C430.894 118.909 431.608 117.068 431.608 114.878C431.608 112.739 430.894 110.899 429.513 109.356ZM431.514 101.344H437.899V128.462H431.514V124.88C429.282 127.707 426.51 129.11 423.223 129.11C419.506 129.11 416.409 127.767 413.976 125.03C411.546 122.294 410.356 118.86 410.356 114.781C410.356 110.699 411.596 107.316 414.026 104.678C416.456 101.992 419.553 100.649 423.223 100.649C426.463 100.649 429.322 102.187 431.514 104.9V101.344ZM282.669 94.5281C282.669 92.1903 284.432 90.4482 286.718 90.4482C288.958 90.4482 290.675 92.2896 290.675 94.5281C290.675 96.9668 288.958 98.7576 286.718 98.7576C284.432 98.7576 282.669 96.9668 282.669 94.5281ZM274.378 112.143H287.578C286.958 108.608 284.527 106.471 281.097 106.471C277.712 106.471 275.187 108.61 274.378 112.143ZM276.331 90.4482C278.571 90.4482 280.334 92.2896 280.334 94.5281C280.334 96.9668 278.619 98.7576 276.331 98.7576C274.043 98.7576 272.328 96.9668 272.328 94.5281C272.328 92.2896 274.092 90.4482 276.331 90.4482ZM293.867 117.367H274.378C275.331 121.198 277.856 123.138 281.955 123.138C284.765 123.138 287.896 122.039 290.269 120.073L292.974 124.516C289.694 127.722 285.958 129.06 281.668 129.06C277.092 129.06 273.614 127.668 271.184 124.931C268.755 122.194 267.562 118.81 267.562 114.88C267.562 110.749 268.802 107.367 271.328 104.681C273.854 101.992 277.094 100.648 281.097 100.648C284.862 100.648 288.005 101.891 290.435 104.33C292.866 106.769 294.105 110.053 294.105 114.28C294.105 115.226 294.012 116.274 293.867 117.367Z" fill="#EB2316"/>
<path fill-rule="evenodd" clip-rule="evenodd" d="M106.422 62.2856C82.2719 62.2856 62.625 82.8438 62.625 108.114C62.625 133.385 82.2719 153.943 106.422 153.943C130.571 153.943 150.22 133.385 150.22 108.114C150.22 82.8438 130.571 62.2856 106.422 62.2856Z" fill="white"/>
<path fill-rule="evenodd" clip-rule="evenodd" d="M128.546 75.2417C125.204 84.2128 117.594 86.0794 106.571 86.0794C105.388 86.0794 104.216 86.0599 103.085 86.0424C101.991 86.0268 100.957 86.0093 99.9431 86.0093C99.0426 86.0093 98.1348 86.021 97.2402 86.0619C98.7843 82.0951 101.249 79.3993 104.757 77.7643C109.648 75.4869 116.006 75.4636 121.615 75.4461C124.06 75.4363 126.4 75.4266 128.546 75.2417Z" fill="#008F32"/>
<path fill-rule="evenodd" clip-rule="evenodd" d="M131.937 78.1241C126.993 89.394 115.974 90.5229 106.528 90.5229C104.454 90.5229 102.467 90.4703 100.627 90.4587L98.2483 100.195C110.432 89.8008 126.545 100.105 124.822 115.79C123.662 126.353 116.465 133.261 108.851 135.246C100.557 137.411 91.3676 134.172 87.2473 125.327C86.8102 124.393 86.0494 122.52 85.7592 121.52L94.5055 119.169C94.6599 119.696 94.9223 120.206 95.1976 120.671C101.053 130.553 112.919 125.611 114.258 115.359C115.622 104.93 101.637 99.3751 95.2646 111.564L87.5077 108.105L87.3738 108.043L91.1146 92.3292C91.3452 91.2119 92.1228 88.0918 92.2567 87.5799C96.4848 71.3116 110.162 71.0547 121.134 71.0119C116.597 69.0363 111.623 67.9424 106.401 67.9424C85.1956 67.9424 68.0078 85.9274 68.0078 108.117C68.0078 130.306 85.1956 148.291 106.401 148.291C127.607 148.291 144.795 130.306 144.795 108.117C144.795 96.1889 139.824 85.4816 131.937 78.1241Z" fill="#EB2316"/>
</g>
</svg>
