<svg width="501" height="218" viewBox="0 0 501 218" fill="none" xmlns="http://www.w3.org/2000/svg">
<rect width="501" height="218" rx="30" fill="#F4D8AF"/>
<g clip-path="url(#clip0_111_63)">
<path fill-rule="evenodd" clip-rule="evenodd" d="M84.9898 123.837C83.9166 113.579 81.3192 114.041 76.8072 105.125C73.1489 97.8827 70.7587 90.9702 73.0391 80.9097C65.5273 89.6383 62.625 99.974 62.625 109.77C62.625 131.113 80.6119 151.124 104.879 154.977C95.0868 148.901 86.319 136.628 84.9898 123.837Z" fill="#20A357"/>
<path fill-rule="evenodd" clip-rule="evenodd" d="M119.097 119.391C159.168 93.1056 127.462 64.5531 126.523 63.6064C129.596 87.657 107.073 94.9878 99.793 101.724C89.3788 111.366 87.7935 118.862 90.3056 128.945C93.0738 140.018 103.476 153.326 116.78 155.714C102.939 150.948 98.1345 133.139 119.097 119.391Z" fill="#20A357"/>
<path fill-rule="evenodd" clip-rule="evenodd" d="M133.524 65.5767C140.243 72.6322 145.218 83.9586 142.828 95.7032C138.218 118.312 113.232 121.735 109.635 136.452C107.403 145.632 113.525 153.304 124.146 153.326C146.206 153.37 166.559 131.895 166.181 108.747C165.876 90.5188 154.376 73.1716 133.524 65.5767Z" fill="#00A0E3"/>
<path fill-rule="evenodd" clip-rule="evenodd" d="M105.965 92.6874C127.366 80.1172 122.244 62.803 122.244 62.803C120.317 62.4618 118.013 62.2856 115.464 62.2856C101.709 62.2967 81.0267 67.5801 77.3806 80.7336C72.5881 98.0368 86.685 112.104 86.685 112.104C86.685 112.104 90.0507 102.021 105.965 92.6874ZM405.194 114.988C401.255 114.988 397.731 116.573 395.341 119.06L405.096 95.0099L413.193 114.988H405.194ZM414.693 79.787H401.694C399.88 79.7861 398.11 80.2881 396.622 81.2252C395.135 82.1623 394.002 83.4892 393.377 85.0264L371.817 138.213H387.585L392.182 126.853H417.998L422.608 138.213H438.375L414.693 79.787ZM376.171 86.028V79.787H328.954C326.608 79.7899 324.359 80.6331 322.701 82.1314C321.044 83.6298 320.113 85.6607 320.113 87.7782V94.0192H340.258V138.213H356.026V94.0192H367.33C372.208 94.0192 376.171 90.4419 376.171 86.028ZM292.504 84.1128L268.798 114.294V79.787H261.884C259.536 79.787 257.284 80.6289 255.624 82.1276C253.963 83.6262 253.031 85.6588 253.031 87.7782V138.213H268.798L295.907 104.509V138.213H311.674V79.787H301.772C299.957 79.7867 298.168 80.1793 296.555 80.932C294.942 81.6847 293.553 82.7754 292.504 84.1128ZM224.605 125.478H204.716V114.074H224.544C226.152 114.157 227.665 114.79 228.774 115.845C229.883 116.9 230.504 118.296 230.512 119.75C230.52 121.204 229.913 122.606 228.816 123.67C227.718 124.734 226.212 125.381 224.605 125.478ZM204.716 92.5222H224.13C226.703 92.5222 228.971 94.2504 229.178 96.5729C229.232 97.1768 229.147 97.7843 228.929 98.3574C228.711 98.9305 228.365 99.457 227.912 99.9041C227.459 100.351 226.909 100.709 226.296 100.956C225.683 101.203 225.02 101.333 224.349 101.339H216.837C211.642 101.339 207.118 103.904 204.716 107.69V92.5222ZM243.251 95.7143C242.555 86.6885 233.983 79.787 223.959 79.787H197.802C195.454 79.787 193.202 80.6289 191.541 82.1276C189.881 83.6262 188.948 85.6588 188.948 87.7782V138.213H224.203C235.092 138.213 244.324 130.629 244.921 120.811C245.25 115.593 243.129 110.761 239.495 107.228C242.129 104.047 243.58 100.018 243.251 95.7143Z" fill="#EC691F"/>
</g>
<defs>
<clipPath id="clip0_111_63">
<rect x="62.625" y="62.2856" width="375.75" height="93.4286" rx="30" fill="white"/>
</clipPath>
</defs>
</svg>
